<svg xmlns="http://www.w3.org/2000/svg" viewBox="0 0 100 100"><defs><style>.a{fill:#f3eade;}.b,.c,.d,.e,.f{fill:#ffcd04;}.c{opacity:0.33;}.d,.i{opacity:0.2;}.e,.j{opacity:0.1;}.f,.k{opacity:0.05;}.g,.h,.i,.j,.k{fill:#f15a29;}.h{opacity:0.3;}</style></defs><title>oomag-logo-square</title><rect class="a" width="100" height="100"/><rect class="b" width="10" height="10"/><rect class="c" x="10" width="10" height="10"/><rect class="d" x="10" y="10" width="10" height="10"/><rect class="d" x="20" width="10" height="10"/><rect class="e" x="20" y="10" width="10" height="10"/><rect class="e" x="30" width="10" height="10"/><rect class="f" x="40" width="10" height="10"/><rect class="f" x="30" y="10" width="10" height="10"/><rect class="c" y="10" width="10" height="10"/><rect class="e" x="10" y="20" width="10" height="10"/><rect class="f" x="20" y="20" width="10" height="10"/><rect class="d" y="20" width="10" height="10"/><rect class="f" x="10" y="30" width="10" height="10"/><rect class="e" y="30" width="10" height="10"/><rect class="f" y="40" width="10" height="10"/><rect class="g" width="1" height="1"/><rect class="h" x="1" width="1" height="1"/><rect class="i" x="1" y="1" width="1" height="1"/><rect class="h" y="1" width="1" height="1"/><rect class="j" x="1" y="2" width="1" height="1"/><rect class="j" y="3" width="1" height="1"/><rect class="i" x="2" width="1" height="1"/><rect class="j" x="2" y="1" width="1" height="1"/><rect class="j" x="3" width="1" height="1"/><rect class="k" x="2" y="2" width="1" height="1"/><rect class="k" x="3" y="1" width="1" height="1"/><rect class="k" y="4" width="1" height="1"/><rect class="k" x="1" y="3" width="1" height="1"/><rect class="k" x="4" width="1" height="1"/><rect class="i" y="2" width="1" height="1"/></svg>